<svg width="80.6" xmlns="http://www.w3.org/2000/svg" height="80.6" viewBox="0 0 80.6 80.6" xmlns:xlink="http://www.w3.org/1999/xlink" enable-background="new 0 0 80.6 80.6">
<g fill="#808285">
<path d="m27.4,51.2v-21.8h11.2c2.2,0 3.9,.1 5.2,.4 1.3,.2 2.5,.7 3.5,1.2 1.6,.9 2.8,2.2 3.7,3.8 .9,1.7 1.3,3.6 1.3,5.8 0,2.1-.4,3.9-1.2,5.5-.8,1.6-2,2.8-3.6,3.6-1,.6-2.1,.9-3.3,1.2-1.2,.2-3.1,.3-5.6,.3-.1,0-11.2,0-11.2,0zm10.1-16.7h-4.5v11.5h4.5c3.2,0 5.5-.4 6.9-1.3 1.4-.9 2.2-2.3 2.2-4.3 0-2-.8-3.4-2.3-4.4-1.5-1.1-3.8-1.5-6.8-1.5m30.4,17.1c-4.1,0-7.2-1-9.4-2.9-2.2-2-3.3-4.8-3.3-8.4 0-3.5 1.2-6.3 3.5-8.3 2.3-2 5.6-3 9.8-3 4.1,0 7.4,.8 9.6,2.8 .8,.7 1.4,1.6 1.8,2.7 .3,.9 .6,1.9 .5,3h-6c-.1-.6-.2-.9-.7-1.4-.5-.6-1.7-1.2-2.6-1.4-.9-.2-2-.3-3.1-.3-2.1,0-3.7,.3-4.9,1.4-1.2,1.1-1.7,2.8-1.7,4.7 0,1.9 .6,3.5 1.7,4.5 1.1,1 2.8,1.3 5,1.3 1.2,0 2.3,0 3.3-.2 .8-.2 1.6-.4 2.2-.9 .7-.6 1-1.3 1.1-2.4h6c0,2.7-.8,4.9-2.7,6.2-2.4,1.9-5.7,2.6-10.1,2.6"/>
<path d="m7.7,29.4h14.8v5.1h-16c-.2,1.1-.3,2.3-.4,3.4h15.6v4.6h-15.7c.1,1.2 .2,2.3 .4,3.5h16.4v5.3h-21.3c-1-3.6-1.5-7.2-1.5-11v-.7-.2-.3-.2-.2-.2-.2-.2-.2-.2-.2c.2-2.7 .6-5.4 1.3-8v-.2-.2l6.4,.3 0,0z"/>
</g>
<path fill="#fec315" d="m40.3,0c17.5,0 32.4,11.2 38,26.8-4.9-9.6-15-16.3-26.5-16.3-11.2,0-20.9,6.2-26,15.4h-23.2-0c5.8-15.1 20.5-25.9 37.7-25.9"/>
<path fill="#002a5c" d="m77.9,54.6c-5.8,15.2-20.5,26-37.7,26-17.5,0-32.4-11.2-38-26.9 5,9.7 15.1,16.3 26.6,16.3 11.2,0 21-6.2 26-15.4 0,0 23.1,0 23.1,0z"/>
</svg>
