<svg width="34" xmlns="http://www.w3.org/2000/svg" height="34" viewBox="0 0 128 128" xmlns:xlink="http://www.w3.org/1999/xlink" enable-background="new 0 0 128 128">
<path fill="#036" d="m80,16v8c0,8.8-7.2,16-16,16-8.8,0-16-7.2-16-16v-8c0-8.8 7.2-16 16-16 8.8,0 16,7.2 16,16zm6.8,41.2c-.3-.4-9.3-9.2-22.8-9.2s-22.5,8.8-22.8,9.2c-.8,.7-1.2,1.7-1.2,2.8v32c0,1.5 .9,2.9 2.2,3.6l6.1,3.1 3.7,25.9c.3,2 2,3.4 4,3.4h16c2,0 3.7-1.5 4-3.4l3.7-25.9 6.1-3.1c1.4-.7 2.2-2.1 2.2-3.6v-32c0-1.1-.4-2.1-1.2-2.8zm37.2-29.2v6c0,6.6-5.4,12-12,12-6.6,0-12-5.4-12-12v-6c0-6.6 5.4-12 12-12 6.6,0 12,5.4 12,12zm-12,24c-14.8,0-16,6.1-16,8v24c0,1.3 .7,2.6 1.8,3.3l4.4,3 1.8,18.1c.2,2 1.9,3.6 4,3.6h8c2.1,0 3.8-1.6 4-3.6l1.8-18.1 4.4-3c1.1-.7 1.8-2 1.8-3.3v-24c0-1.9-1.2-8-16-8zm-84-24v6c0,6.6-5.4,12-12,12-6.6,0-12-5.4-12-12v-6c0-6.6 5.4-12 12-12 6.6,0 12,5.4 12,12zm-12,24c-14.8,0-16,6.1-16,8v24c0,1.3 .7,2.6 1.8,3.3l4.4,3 1.8,18.1c.2,2 1.9,3.6 4,3.6h8c2.1,0 3.8-1.6 4-3.6l1.8-18.1 4.4-3c1.1-.7 1.8-2 1.8-3.3v-24c0-1.9-1.2-8-16-8z"/>
</svg>
