<svg width="36" xmlns="http://www.w3.org/2000/svg" height="34" viewBox="0 0 37.3 35.8" xmlns:xlink="http://www.w3.org/1999/xlink" enable-background="new 0 0 37.3 35.8">
<path fill="#1c3660" d="m32.3,27.6v5.1c0,1.7-1.4,3.1-3.1,3.1h-6.8v-9.2c0-1-.8-1.8-1.9-1.8h-3.7c-1,0-1.9,.8-1.9,1.8v9.2h-6.8c-1.7,0-3.1-1.4-3.1-3.1v-5.1-7.2l11.7-10.1 2-1.8 1.6,1.4 .8,.7 11.2,9.7v7.3zm4.4-9.4c-.5,.6-1.2,.8-1.9,.8-.6,0-1.2-.2-1.6-.6l-4.6-4c-.3-.2-.5-.4-.7-.6l-9.2-8.1-14.6,12.7c-1,.9-2.6,.8-3.5-.2-.9-1-.8-2.6 .2-3.5l16.2-14.1c.9-.8 2.4-.8 3.3,0l7.1,6.2v-1.9c0-1.4 1.1-2.5 2.5-2.5 1.4,0 2.5,1.1 2.5,2.5v6.2l4.1,3.6c1,.9 1.1,2.5 .2,3.5"/>
</svg>
