<svg width="32" xmlns="http://www.w3.org/2000/svg" height="42" viewBox="0 0 1173.1 1540.5" xmlns:xlink="http://www.w3.org/1999/xlink" enable-background="new 0 0 1173.1 1540.5">
<path fill="#036" d="m586.9,0c-321,0-586.9,261.9-586.9,584.9v10.9c0,384.8 489.6,944.7 586.9,944.7 98.8,0 586.3-565.1 586.3-949.9v-10.9c-.1-323-265.3-579.7-586.3-579.7zm0,873.5c-155.6,0-281.7-127-281.7-283.6 0-156.7 126.2-283.6 281.7-283.6 155.6,0 281.7,127 281.7,283.6 0,156.6-126.2,283.6-281.7,283.6z"/>
<circle fill="#fff" cx="586.6" cy="589.8" r="461.7"/>
<path fill="#808184" d="m454.5,701.5v-223.4h114.1c22.2,0 39.9,1.2 53.2,3.9 13.3,2.5 25.1,6.8 35.7,12.6 16.4,9.1 28.9,22 37.7,38.9 8.9,16.9 13.2,36.6 13.2,58.9 0,21.5-4.2,40.2-12.6,56.3-8.4,16.2-20.6,28.6-36.4,37.3-9.9,5.6-21,9.5-33.5,12-12.4,2.3-31.5,3.5-57.2,3.5h-114.2z"/>
<path fill="#fff" d="m558,530.2h-45.9v117.4h45.9c32.3,0 55.9-4.5 70.6-13.7 14.7-9.2 22-23.8 22-44.1 0-20-7.6-35-23-44.9-15.3-9.7-38.6-14.7-69.6-14.7z"/>
<g fill="#808184">
<path d="m868.7,705.6c-41.5,0-73.7-10.1-96-30.1-22.4-20.2-33.6-48.9-33.6-86.2 0-36.2 11.9-64.4 35.7-84.6 23.8-20.2 57.2-30.2 99.8-30.2 42.3,0 75.8,8.1 98.5,28.2 8.6,7.6 14.5,16.8 18.5,27.2 3.5,9.2 5.6,19.1 5.4,30.5h-61.7c-.8-6.2-1.8-9.2-6.6-14.7-5.4-6.2-17.1-12-27-14.1-9.4-2.1-20.3-2.7-31.3-2.7-21.6,0-38.2,3.5-50.2,14.5-12,11-17.8,28.4-17.8,48.2 0,19.7 5.6,36.1 17.2,46 11.4,9.9 28.6,13 51.4,13 12.4,0 23.8-.4 33.6-2.3 8.5-1.7 16.7-4.2 22.2-8.8 6.9-5.6 10.5-13.7 11.1-24.1h61.1c-.2,27.9-8.3,49.6-27.7,63.9-23.6,19.5-57.7,26.3-102.6,26.3z"/>
<path d="m253.5,478.1h150.9v52.1h-164.1c-2,11.5-3.4,23.2-4.2,35h160v46.8h-160.2c.8,12 2.2,23.8 4.1,35.6h167.4v53.8h-153.9-63.8c-10.1-35.6-15.4-73-15.4-111.5 0-.6 0-1.2 0-1.8 0-.7 0-1.2 0-1.9 0-.6 0-1.2 0-1.8 0-.6 0-1.2 0-1.8 0-.7 0-1.2 .1-1.9 0-.6 0-1.2 0-1.8 0-.6 0-1.2 0-1.8 .1-.7 .1-1.2 .1-1.9 0-.6 0-1.1 0-1.8 .1-.6 .1-1.2 .1-1.8 0-.6 .1-1.2 .1-1.8 0-.7 0-1.2 .1-1.8 0-.7 0-1.2 .1-1.9 0-.6 0-1.1 .1-1.8 0-.6 0-1.1 .1-1.8 1.8-28 6.4-55.2 13.6-81.4 .1-.6 .3-1.1 .4-1.7 .1-.6 .3-1.1 .4-1.7h60.4 3.6v.4z"/>
</g>
<path fill="#fcc233" d="m586.4,177.7c178.8,0 331.5,114.9 388.4,274.5-50.3-98.6-153-166.4-270.9-166.4-114.4,0-214.2,63.7-266.2,157.4 0,.1-.1,.1-.1,.2h-236.4c.1-.1 .1-.2 .1-.3 59.4-154.8 209.7-265.4 385.1-265.4z"/>
<path fill="#036" d="m971.5,736.2c-59.2,155.1-209.7,265.8-385.1,265.8-178.8,0-331.5-114.9-388.4-274.6 50.3,98.7 153,166.5 271.1,166.5 114.3,0 214.3-63.8 266.2-157.6h236.2z"/>
</svg>
